<?xml version="1.0" encoding="utf-8"?>
<!-- Generator: Adobe Illustrator 19.1.0, SVG Export Plug-In . SVG Version: 6.00 Build 0)  -->
<svg version="1.1" id="Layer_1" xmlns="http://www.w3.org/2000/svg" xmlns:xlink="http://www.w3.org/1999/xlink" x="0px" y="0px"
	 viewBox="-255 129 512 652" style="enable-background:new -255 129 512 652;" xml:space="preserve">
<style type="text/css">
	.st0{fill:#210049;}
</style>
<g>
	<g>
		<g>
			<path class="st0" d="M112,129h-219.8c-5.1,0-10.3,3.2-10.3,8.3V274c0,2.7,1.2,5.3,3.3,7l106.6,88.8v32.8
				c-54.9,4.7-100.2,52-100.2,109.5c0,60.6,49.6,109.9,110.2,109.9s109.5-49.3,109.5-109.9c0-57.5-43.9-104.8-101.2-109.5v-32.8
				L116.8,281c2.1-1.7,3.3-4.3,3.3-7V137.3C120.1,132.2,117.1,129,112,129z M-53.9,307.9l-45.8-38.2V147.3H-54L-53.9,307.9
				L-53.9,307.9z M93.7,512.1c0,50.5-41.1,91.6-91.6,91.6s-91.6-41.1-91.6-91.6c0-50.5,41.1-91.6,91.6-91.6
				C52.6,420.5,93.7,461.6,93.7,512.1z M2.1,353.6l-37.7-31c0.3-0.9-0.1-1.9-0.1-2.9V147.3h73.3v172.5c0,1,0.8,2,1.1,2.9L2.1,353.6z
				 M101.7,269.7L56,307.9V147.3h45.8V269.7z"/>
		</g>
	</g>
	<g>
		<g>
			<path class="st0" d="M71.8,489.5c-1.1-3.3-3.9-5.7-7.4-6.2l-37.4-5.4l-16.7-33.9c-3.1-6.3-13.3-6.3-16.4,0l-16.7,33.9l-37.4,5.4
				c-3.5,0.5-6.3,2.9-7.4,6.2c-1.1,3.3-0.2,7,2.3,9.4l27,26.4l-6.4,37.2c-0.6,3.4,0.8,6.9,3.6,9c2.8,2.1,6.6,2.3,9.6,0.7l33.4-17.6
				l33.4,17.6c1.3,0.7,2.8,1.1,4.3,1.1c1.9,0,3.8-0.6,5.4-1.8c2.8-2,4.2-5.5,3.6-9l-6.4-37.2l27-26.4
				C72,496.4,72.9,492.8,71.8,489.5z M26.2,515.5c-2.2,2.1-3.1,5.1-2.6,8.1l4.1,23.7L6.4,536.1c-1.3-0.7-2.8-1.1-4.3-1.1
				c-1.5,0-2.9,0.3-4.3,1.1l-21.3,11.2l4.1-23.7c0.5-3-0.5-6-2.6-8.1l-17.2-16.8l23.8-3.5c3-0.4,5.6-2.3,6.9-5l10.6-21.5l10.6,21.5
				c1.3,2.7,3.9,4.6,6.9,5l23.8,3.5L26.2,515.5z"/>
		</g>
	</g>
</g>
<g>
	<path class="st0" d="M-195.9,751.2h-11.6v-83.1h26.6c16.1,0,29.6,6.1,29.6,23c0,12.2-8.3,19.9-20.2,21.9l23.2,38.1h-14.1l-21.1-37
		h-12.4V751.2z M-195.9,704.5h13.4c10.9,0,19.5-3.4,19.5-13.4s-8.6-13.1-18.7-13.1h-14.2V704.5z"/>
	<path class="st0" d="M-102.8,715.1c0-8.2-5.5-12.2-13.7-12.2c-6.2,0-12.1,2.7-15.8,6.5l-5.9-7c5.4-5.2,13.7-8.3,22.8-8.3
		c16,0,23.2,9.5,23.2,21.8v24.3c0,3.8,0.2,8.3,0.8,11h-10c-0.6-2.5-0.9-5.4-0.9-8h-0.4c-4,6-10.3,9.4-18.7,9.4
		c-8.8,0-20.2-4.3-20.2-17.1c0-16.8,19.9-18.8,38.7-18.8V715.1z M-105.5,724.6c-10.9,0-24.8,1.2-24.8,10.6c0,6.6,5.9,8.7,11.4,8.7
		c10.3,0,16.1-6.9,16.1-16.3v-2.9H-105.5z"/>
	<path class="st0" d="M-63.9,695.6c0.2,2.8,0.5,6.8,0.5,9.2h0.4c2.7-6,10.1-10.7,18.1-10.7c14.3,0,20.8,10.2,20.8,22.6v34.5h-11
		v-30.9c0-9-2.5-17-12.7-17c-8.7,0-14.9,7.3-14.9,18.3v29.6h-11v-43.6c0-2.9-0.1-8.3-0.5-12H-63.9z"/>
	<path class="st0" d="M5.7,719.7H6l23.3-24.2h14.8l-26,25.2l28.3,30.4H31.2L6,722.3H5.7v28.9h-11v-88.7h11V719.7z"/>
	<path class="st0" d="M61.9,682.5c-4,0-7.3-3.2-7.3-7c0-4,3.3-7.2,7.3-7.2s7.4,3,7.4,7.2C69.3,679.5,65.9,682.5,61.9,682.5z
		 M67.4,751.2h-11v-55.6h11V751.2z"/>
	<path class="st0" d="M96.6,695.6c0.2,2.8,0.5,6.8,0.5,9.2h0.4c2.7-6,10.1-10.7,18.1-10.7c14.3,0,20.8,10.2,20.8,22.6v34.5h-11
		v-30.9c0-9-2.5-17-12.7-17c-8.7,0-14.9,7.3-14.9,18.3v29.6h-11v-43.6c0-2.9-0.1-8.3-0.5-12H96.6z"/>
	<path class="st0" d="M159.3,760.7c4.8,5.4,12.7,9,20.3,9c14.7,0,19.6-9,19.6-20.5V742h-0.2c-4.1,6.2-11.7,9.6-19.6,9.6
		c-17,0-28-12.7-28-28.6s10.9-29,27.9-29c8,0,15.8,3.5,20.1,10.4h0.2v-8.9h10.7v52.8c0,16.2-7.6,31-30.7,31
		c-9.6,0-20.3-3.8-27.2-10.1L159.3,760.7z M181.1,742.4c11.4,0,18.9-8.6,18.9-19.6c0-10.6-7.6-19.6-18.9-19.6
		c-11.6,0-18.4,8.9-18.4,19.6C162.7,733,169.5,742.4,181.1,742.4z"/>
</g>
</svg>
