<?xml version="1.0"?>
<svg xmlns="http://www.w3.org/2000/svg" xmlns:xlink="http://www.w3.org/1999/xlink" class="" id="Capa_1" style="enable-background:new 0 0 463.021 463.021;" viewBox="0 0 463.021 463.021" x="0px" y="0px" width="512px" height="512px" version="1.1" xml:space="preserve"><g><g>
	<path class="active-path" d="M 442.763 174.192 c -140.176 -18.703 -282.327 -18.703 -422.502 0 c -11.544 1.54 -20.249 11.513 -20.249 23.237 c 0 6.695 2.881 13.064 7.906 17.475 c 5.057 4.438 11.794 6.482 18.494 5.606 c 28.366 -3.708 56.816 -6.632 85.314 -8.794 L 97.126 438.008 c -0.417 6.457 1.882 12.867 6.307 17.587 c 4.425 4.72 10.674 7.427 17.144 7.427 h 221.869 c 6.47 0 12.718 -2.707 17.143 -7.427 s 6.725 -11.13 6.308 -17.586 l -14.6 -226.292 c 28.498 2.162 56.948 5.086 85.314 8.794 h 0 c 1.018 0.133 2.036 0.199 3.05 0.199 c 5.656 0 11.156 -2.042 15.443 -5.806 c 5.024 -4.41 7.906 -10.779 7.906 -17.515 C 463.012 185.705 454.307 175.732 442.763 174.192 Z M 348.647 445.335 c -1.625 1.732 -3.826 2.687 -6.201 2.687 H 120.577 c -2.375 0 -4.577 -0.954 -6.201 -2.687 s -2.434 -3.991 -2.281 -6.361 l 10.319 -159.952 h 218.195 l 10.32 159.952 C 351.082 441.344 350.271 443.602 348.647 445.335 Z M 339.642 264.021 h -216.26 l 3.444 -53.383 c 69.706 -4.619 139.665 -4.619 209.372 0 L 339.642 264.021 Z M 445.21 203.632 c -1.837 1.614 -4.199 2.324 -6.654 2.006 h 0 c -137.385 -17.96 -276.705 -17.96 -414.089 0 c -2.452 0.317 -4.816 -0.393 -6.654 -2.006 c -1.807 -1.586 -2.802 -3.789 -2.802 -6.242 c 0 -4.198 3.109 -7.778 7.232 -8.328 c 138.861 -18.527 279.677 -18.527 418.536 0 c 4.123 0.55 7.232 4.13 7.232 8.368 C 448.012 199.843 447.017 202.046 445.21 203.632 Z" data-original="#000000" data-old_color="#1600FF" fill="#210049"/>
	<path class="active-path" d="M 15.87 45.747 l 256 88 c 2.475 0.851 5.046 1.282 7.642 1.282 c 10.03 0 18.961 -6.376 22.226 -15.868 c 4.208 -12.253 -2.333 -25.649 -14.585 -29.865 L 31.155 1.297 c -5.957 -2.051 -12.342 -1.658 -17.979 1.102 C 7.548 5.153 3.326 9.941 1.285 15.882 C -2.923 28.135 3.619 41.531 15.87 45.747 Z M 229.749 85.425 l -5.529 16.081 l -12.928 -4.444 l 5.529 -16.081 L 229.749 85.425 Z M 287.552 114.285 c -1.182 3.436 -4.413 5.744 -8.041 5.744 c -0.933 0 -1.862 -0.157 -2.765 -0.468 l -38.342 -13.18 l 5.529 -16.081 l 38.341 13.18 C 286.707 105.006 289.074 109.854 287.552 114.285 Z M 15.472 20.755 c 0.74 -2.155 2.267 -3.89 4.298 -4.884 c 1.171 -0.573 2.434 -0.862 3.707 -0.862 c 0.938 0 1.882 0.157 2.8 0.473 l 176.36 60.623 l -5.529 16.081 L 20.749 31.562 C 16.316 30.037 13.949 25.188 15.472 20.755 Z" data-original="#000000" data-old_color="#1600FF" fill="#210049"/>
	<path class="active-path" d="M 328.22 351.037 c -0.266 -4.134 -3.826 -7.272 -7.967 -7.002 c -4.133 0.267 -7.268 3.834 -7.001 7.967 l 4.646 72.002 c 0.256 3.97 3.555 7.018 7.477 7.018 c 0.162 0 0.326 -0.005 0.49 -0.016 c 4.133 -0.267 7.268 -3.834 7.001 -7.967 L 328.22 351.037 Z" data-original="#000000" data-old_color="#1600FF" fill="#210049"/>
	<path class="active-path" d="M 318.664 327.021 c 0.162 0 0.326 -0.005 0.49 -0.016 c 4.133 -0.267 7.268 -3.834 7.001 -7.967 l -1.032 -16.003 c -0.266 -4.134 -3.816 -7.271 -7.967 -7.002 c -4.133 0.267 -7.268 3.834 -7.001 7.967 l 1.032 16.003 C 311.443 323.973 314.742 327.021 318.664 327.021 Z" data-original="#000000" data-old_color="#1600FF" fill="#210049"/>
	<path class="active-path" d="M 320.012 111.521 c 0 4.143 3.358 7.5 7.5 7.5 c 13.509 0 24.5 10.99 24.5 24.5 c 0 4.143 3.358 7.5 7.5 7.5 s 7.5 -3.357 7.5 -7.5 c 0 -13.51 10.991 -24.5 24.5 -24.5 c 4.142 0 7.5 -3.357 7.5 -7.5 s -3.358 -7.5 -7.5 -7.5 c -13.509 0 -24.5 -10.99 -24.5 -24.5 c 0 -4.143 -3.358 -7.5 -7.5 -7.5 s -7.5 3.357 -7.5 7.5 c 0 13.51 -10.991 24.5 -24.5 24.5 C 323.37 104.021 320.012 107.379 320.012 111.521 Z M 359.512 102.654 c 2.467 3.402 5.464 6.4 8.867 8.867 c -3.402 2.467 -6.4 5.465 -8.867 8.867 c -2.467 -3.402 -5.464 -6.4 -8.867 -8.867 C 354.048 109.054 357.045 106.056 359.512 102.654 Z" data-original="#000000" data-old_color="#1600FF" fill="#210049"/>
	<path class="active-path" d="M 287.512 55.021 h 8.5 v 8.5 c 0 4.143 3.358 7.5 7.5 7.5 s 7.5 -3.357 7.5 -7.5 v -8.5 h 8.5 c 4.142 0 7.5 -3.357 7.5 -7.5 s -3.358 -7.5 -7.5 -7.5 h -8.5 v -8.5 c 0 -4.143 -3.358 -7.5 -7.5 -7.5 s -7.5 3.357 -7.5 7.5 v 8.5 h -8.5 c -4.142 0 -7.5 3.357 -7.5 7.5 S 283.37 55.021 287.512 55.021 Z" data-original="#000000" data-old_color="#1600FF" fill="#210049"/>
	<path class="active-path" d="M 370.209 44.825 c 1.464 1.464 3.384 2.196 5.303 2.196 s 3.839 -0.732 5.303 -2.196 l 10.697 -10.697 l 10.697 10.697 c 1.464 1.464 3.384 2.196 5.303 2.196 s 3.839 -0.732 5.303 -2.196 c 2.929 -2.93 2.929 -7.678 0 -10.607 l -10.696 -10.696 l 10.696 -10.696 c 2.929 -2.93 2.929 -7.678 0 -10.607 c -2.929 -2.928 -7.678 -2.928 -10.606 0 l -10.697 10.697 L 380.815 2.218 c -2.929 -2.928 -7.678 -2.928 -10.606 0 c -2.929 2.93 -2.929 7.678 0 10.607 l 10.696 10.696 l -10.696 10.696 C 367.28 37.147 367.28 41.895 370.209 44.825 Z" data-original="#000000" data-old_color="#1600FF" fill="#210049"/>
</g></g> </svg>
