<?xml version="1.0" encoding="utf-8"?>
<!-- Generator: Adobe Illustrator 19.1.0, SVG Export Plug-In . SVG Version: 6.00 Build 0)  -->
<svg version="1.1" id="Capa_1" xmlns="http://www.w3.org/2000/svg" xmlns:xlink="http://www.w3.org/1999/xlink" x="0px" y="0px"
	 viewBox="-255 129 512 649" style="enable-background:new -255 129 512 649;" xml:space="preserve">
<style type="text/css">
	.st0{fill:#210049;}
</style>
<g>
	<g>
		<path class="st0" d="M234.6,321.6c-155-20.7-312.2-20.7-467.2,0c-12.8,1.7-22.4,12.7-22.4,25.7c0,7.4,3.2,14.4,8.7,19.3
			c5.6,4.9,13,7.2,20.5,6.2c31.4-4.1,62.8-7.3,94.3-9.7l-16.1,250.2c-0.5,7.1,2.1,14.2,7,19.4c4.9,5.2,11.8,8.2,19,8.2h245.3
			c7.2,0,14.1-3,19-8.2c4.9-5.2,7.4-12.3,7-19.4l-16.1-250.2c31.5,2.4,63,5.6,94.3,9.7l0,0c1.1,0.1,2.3,0.2,3.4,0.2
			c6.3,0,12.3-2.3,17.1-6.4c5.6-4.9,8.7-11.9,8.7-19.4C257,334.3,247.4,323.3,234.6,321.6z M130.5,621.4c-1.8,1.9-4.2,3-6.9,3
			h-245.3c-2.6,0-5.1-1.1-6.9-3c-1.8-1.9-2.7-4.4-2.5-7l11.4-176.9h241.3l11.4,176.9C133.2,617,132.3,619.5,130.5,621.4z
			 M120.6,420.9h-239.1l3.8-59c77.1-5.1,154.4-5.1,231.5,0L120.6,420.9z M237.3,354.2c-2,1.8-4.6,2.6-7.4,2.2l0,0
			c-151.9-19.9-306-19.9-457.9,0c-2.7,0.4-5.3-0.4-7.4-2.2c-2-1.8-3.1-4.2-3.1-6.9c0-4.6,3.4-8.6,8-9.2
			c153.5-20.5,309.3-20.5,462.8,0c4.6,0.6,8,4.6,8,9.3C240.4,350,239.3,352.4,237.3,354.2z"/>
		<path class="st0" d="M-237.5,179.6l283.1,97.3c2.7,0.9,5.6,1.4,8.5,1.4c11.1,0,21-7.1,24.6-17.5c4.7-13.5-2.6-28.4-16.1-33
			l-283.1-97.3c-6.6-2.3-13.6-1.8-19.9,1.2c-6.2,3-10.9,8.3-13.1,14.9C-258.2,160.1-251,174.9-237.5,179.6z M-0.9,223.5l-6.1,17.8
			l-14.3-4.9l6.1-17.8L-0.9,223.5z M63,255.4c-1.3,3.8-4.9,6.4-8.9,6.4c-1,0-2.1-0.2-3.1-0.5L8.6,246.6l6.1-17.8l42.4,14.6
			C62,245.1,64.7,250.5,63,255.4z M-237.9,152c0.8-2.4,2.5-4.3,4.8-5.4c1.3-0.6,2.7-1,4.1-1c1,0,2.1,0.2,3.1,0.5l195,67l-6.1,17.8
			l-195-67C-237,162.2-239.6,156.9-237.9,152z"/>
		<path class="st0" d="M107.9,517.2c-0.3-4.6-4.2-8-8.8-7.7c-4.6,0.3-8,4.2-7.7,8.8l5.1,79.6c0.3,4.4,3.9,7.8,8.3,7.8
			c0.2,0,0.4,0,0.5,0c4.6-0.3,8-4.2,7.7-8.8L107.9,517.2z"/>
		<path class="st0" d="M97.4,490.6c0.2,0,0.4,0,0.5,0c4.6-0.3,8-4.2,7.7-8.8l-1.1-17.7c-0.3-4.6-4.2-8-8.8-7.7
			c-4.6,0.3-8,4.2-7.7,8.8l1.1,17.7C89.4,487.2,93,490.6,97.4,490.6z"/>
		<path class="st0" d="M98.9,252.3c0,4.6,3.7,8.3,8.3,8.3c14.9,0,27.1,12.2,27.1,27.1c0,4.6,3.7,8.3,8.3,8.3s8.3-3.7,8.3-8.3
			c0-14.9,12.2-27.1,27.1-27.1c4.6,0,8.3-3.7,8.3-8.3c0-4.6-3.7-8.3-8.3-8.3c-14.9,0-27.1-12.2-27.1-27.1c0-4.6-3.7-8.3-8.3-8.3
			s-8.3,3.7-8.3,8.3c0,14.9-12.2,27.1-27.1,27.1C102.6,244,98.9,247.7,98.9,252.3z M142.5,242.5c2.7,3.8,6,7.1,9.8,9.8
			c-3.8,2.7-7.1,6-9.8,9.8c-2.7-3.8-6-7.1-9.8-9.8C136.5,249.6,139.8,246.3,142.5,242.5z"/>
		<path class="st0" d="M62.9,189.8h9.4v9.4c0,4.6,3.7,8.3,8.3,8.3s8.3-3.7,8.3-8.3v-9.4h9.4c4.6,0,8.3-3.7,8.3-8.3s-3.7-8.3-8.3-8.3
			h-9.4v-9.4c0-4.6-3.7-8.3-8.3-8.3s-8.3,3.7-8.3,8.3v9.4h-9.4c-4.6,0-8.3,3.7-8.3,8.3S58.3,189.8,62.9,189.8z"/>
		<path class="st0" d="M154.4,178.6c1.6,1.6,3.7,2.4,5.9,2.4c2.1,0,4.2-0.8,5.9-2.4l11.8-11.8l11.8,11.8c1.6,1.6,3.7,2.4,5.9,2.4
			c2.1,0,4.2-0.8,5.9-2.4c3.2-3.2,3.2-8.5,0-11.7L189.7,155l11.8-11.8c3.2-3.2,3.2-8.5,0-11.7c-3.2-3.2-8.5-3.2-11.7,0l-11.8,11.8
			l-11.8-11.8c-3.2-3.2-8.5-3.2-11.7,0c-3.2,3.2-3.2,8.5,0,11.7l11.8,11.8l-11.8,11.8C151.1,170.1,151.1,175.3,154.4,178.6z"/>
	</g>
</g>
<g>
	<path class="st0" d="M-134.1,773.2h-11.6v-72.9h-26.6v-10.2h64.9v10.2h-26.6V773.2z"/>
	<path class="st0" d="M-108.1,717.6h10.4c0.2,2.8,0.5,7,0.5,9.4h0.4c3.1-6.5,9.5-10.9,17-10.9c1.5,0,3.1,0.1,4.3,0.5l-0.5,10.2
		c-1.4-0.4-3.3-0.6-5-0.6c-10.6,0-15.6,8.6-15.6,17.8v29.2h-11v-43.6C-107.6,726.6-107.7,721.2-108.1,717.6z"/>
	<path class="st0" d="M-25.9,773.2c-0.2-2.8-0.5-6.8-0.5-9.2h-0.2c-2.8,5.9-10.1,10.7-18.2,10.7c-14.3,0-20.8-10.2-20.8-22.6v-34.5
		h11v30.7c0,9.2,2.5,17.1,12.7,17.1c8.8,0,14.9-7.3,14.9-18.3v-29.6h11v43.6c0,2.9,0.1,8.3,0.5,12H-25.9z"/>
	<path class="st0" d="M42.1,731.6c-2.3-3.6-7.5-6.3-12.8-6.3c-11.5,0-18.2,9.4-18.2,20.1c0,10.6,6.7,20.1,18.3,20.1
		c5.6,0,10.4-2.3,13.4-6.1l7.4,6.7c-4.7,5.4-11.8,8.7-20.8,8.7c-17.1,0-29.9-11.6-29.9-29.3c0-17.5,12.7-29.3,29.7-29.3
		c7.9,0,16.3,3.2,20.9,9.2L42.1,731.6z"/>
	<path class="st0" d="M87.4,774.7c-17,0-29.9-12.3-29.9-29.4c0-17.1,12.9-29.2,29.9-29.2s30,12.1,30,29.2
		C117.4,762.4,104.4,774.7,87.4,774.7z M87.4,725.2c-11.8,0-18.5,9.5-18.5,20.1c0,10.6,6.7,20.2,18.5,20.2c12,0,18.5-9.6,18.5-20.2
		C105.9,734.7,99.4,725.2,87.4,725.2z"/>
	<path class="st0" d="M162.7,731.6c-2.5-4-7.3-6.9-12.9-6.9c-5,0-10.3,2-10.3,7.3c0,4.7,4.2,6.5,12.7,8.3
		c10.6,2.3,18.7,6.7,18.7,16.4c0,13.1-10.9,18-22.2,18c-8.4,0-17.1-3.3-22.4-10l7.9-6.7c2.9,4.3,8.6,7.7,14.8,7.7c5.5,0,11-2,11-8.1
		c0-5.2-5-7-14.5-9.3c-7.4-1.8-16.2-4.9-16.2-15.4c0-12,10.4-17,21-17c7.9,0,16.2,3.2,20.2,9.2L162.7,731.6z"/>
</g>
</svg>
